<svg width="24" height="24" viewBox="0 0 24 24" fill="none" xmlns="http://www.w3.org/2000/svg">
<g clip-path="url(#clip0_290_1590)">
<path d="M18 0H6C4.4087 0 2.88258 0.632141 1.75736 1.75736C0.632141 2.88258 0 4.4087 0 6L0 18C0 19.5913 0.632141 21.1174 1.75736 22.2426C2.88258 23.3679 4.4087 24 6 24H18C19.5913 24 21.1174 23.3679 22.2426 22.2426C23.3679 21.1174 24 19.5913 24 18V6C24 4.4087 23.3679 2.88258 22.2426 1.75736C21.1174 0.632141 19.5913 0 18 0ZM22.875 18C22.8735 19.2925 22.3594 20.5316 21.4455 21.4455C20.5316 22.3594 19.2925 22.8735 18 22.875H6C4.70753 22.8735 3.46842 22.3594 2.5545 21.4455C1.64058 20.5316 1.12649 19.2925 1.125 18V6C1.12649 4.70753 1.64058 3.46842 2.5545 2.5545C3.46842 1.64058 4.70753 1.12649 6 1.125H18C19.2925 1.12649 20.5316 1.64058 21.4455 2.5545C22.3594 3.46842 22.8735 4.70753 22.875 6V18Z" fill="#4890B2"/>
<path d="M17.0625 16.4542L7.73325 7.125H11.4236V6H5.8125V11.6111H6.9375V7.92038L16.2671 17.25H12.5764V18.375H18.1875V12.7639H17.0625V16.4542Z" fill="#4890B2"/>
</g>
<defs>
<clipPath id="clip0_290_1590">
<rect width="24" height="24" fill="white"/>
</clipPath>
</defs>
</svg>
